<svg xmlns="http://www.w3.org/2000/svg" width="140" height="33" version="1.0" viewBox="0 0 300 60"><defs/><path d="M244 10v4h9V6h-9v4zM5 30v23h9v-6.8c.1-6.1.3-7 3.1-10.1 1.8-1.9 3.4-2.9 3.8-2.4.3.6 3.5 5.2 7 10.2l6.5 9.1h4.9c5.6 0 5.9 1-3.3-11.5-3.7-5-7.4-10.2-8.4-11.7L25.8 27l8.6-10 8.7-10h-9.9l-9.3 10.6-9.4 10.7-.3-10.7L13.9 7H5v23zM199 7.6c0 .3 3.2 5 7 10.4 3.9 5.5 7.3 10.6 7.6 11.4.3.8-2.1 5-5.4 9.7-3.2 4.6-6.7 9.6-7.7 11.1l-1.7 2.8h9.2l5.2-8c2.9-4.4 5.6-8 5.9-8 .4 0 3 3.6 5.9 8 5.2 8 5.3 8 9.6 8 2.4 0 4.4-.3 4.4-.6s-3.1-4.9-6.8-10.3c-3.7-5.3-7.1-10.2-7.5-10.8-.7-1 7.5-13.9 14.6-23.1.7-.9-.2-1.2-3.9-1.2h-4.9l-5.6 8.5-5.6 8.5-5.8-8.5C207.7 7 207.6 7 203.3 7c-2.4 0-4.3.3-4.3.6zM54.7 19.4c-6.3 1.7-7.4 2.8-5.9 6l1.1 2.5 4.7-2c6.5-2.9 11-2 13 2.6.8 1.9 1.4 3.6 1.4 3.9 0 .2-2.6.2-5.9-.1-10.7-1-17.1 3.1-17.1 10.9 0 3 .7 4.6 2.9 6.9 2.5 2.5 3.7 2.9 8.3 2.9 4 0 6.2-.6 8.8-2.4l3.5-2.3 1 2.1c.7 1.5 2.2 2.2 4.8 2.4l3.7.3v-4c0-2.3-.4-4.1-1-4.1s-1-3.4-1-8.1c0-9.2-1.6-13.6-5.8-16.1-3.9-2.3-11-2.9-16.5-1.4zm12.7 18.2c4.4 1.7-.9 9.4-6.4 9.4-6.4 0-9.1-4.1-5.3-8.2 1.6-1.8 8.3-2.5 11.7-1.2zM100.4 19.4c-1.7.8-4 2.6-5.2 4.1L93 26.3v-3.7c0-3.5-.1-3.6-4-3.6h-4v34h9V42.2c0-12.2.6-13.4 7.4-15.3 3.4-.9 3.6-1.3 3.6-4.9 0-4.4-.2-4.5-4.6-2.6zM120.1 19c-4 .9-7.7 3.6-10.5 7.4-1.7 2.1-2.1 4.2-2.1 9.6 0 7.6 1.6 10.7 7.5 14.7 6.4 4.4 19.1 2.5 23.8-3.5 1.8-2.3 1.5-2.9-1.9-3.6-2.3-.4-3.8-.1-5.6 1.4-2.9 2.2-8.9 2.6-11.4.7-1.5-1.1-3.9-4.9-3.9-6.1 0-.3 5.9-.6 13-.6h13v-4.2c0-10.7-10.8-18.5-21.9-15.8zm10.7 8.3c1.2 1.1 2.2 2.9 2.2 3.9 0 1.6-.9 1.8-8.5 1.8-5.3 0-8.5-.4-8.5-1.1 0-2.3 2.3-5.1 5.2-6.4 3.7-1.5 6.5-1 9.6 1.8zM165.1 19c-1.8.4-4.6 1.8-6.2 2.9l-2.9 2.2v-2.6c0-2.3-.4-2.5-4-2.5h-4v34h8V32.8l3.4-3.4c4-4 7.8-4.4 10-1.2 1.2 1.7 1.6 4.9 1.6 13.5V53h8V38.9c0-8.1-.5-14.9-1.1-16.1-.6-1.1-2.6-2.6-4.4-3.4-3.8-1.5-3.6-1.5-8.4-.4zM272.1 19c-4 .9-7.7 3.6-10.5 7.4-1.7 2.1-2.1 4.2-2.1 9.6 0 7.6 1.6 10.7 7.5 14.7 6.4 4.4 19.1 2.5 23.8-3.5 1.8-2.3 1.5-2.9-1.9-3.6-2.3-.4-3.8-.1-5.6 1.4-4 3.2-9.5 2.7-12.7-1.1-1.4-1.7-2.6-3.5-2.6-4s5.7-.9 13-.9h13v-4.3c-.1-10.7-10.8-18.4-21.9-15.7zm10.6 8.2c1.1 1.1 2.3 2.8 2.6 3.9.5 1.8-.1 1.9-8.4 1.9-5.6 0-8.9-.4-8.9-1.1 0-2.3 2.3-5.1 5.2-6.4 3.6-1.5 6.5-1 9.5 1.7zM244 36v17h9V19h-9v17z"/></svg>